Coordinates
version=1
nRows=24
nColumns=24
inDegrees=yes

Units are S.I. units (second, meters, Newtons, ...)
Angles are in degrees.

endheader
time	pelvis_tilt	pelvis_list	pelvis_rotation	pelvis_tx	pelvis_ty	pelvis_tz	hip_flexion_r	hip_adduction_r	hip_rotation_r	knee_angle_r	ankle_angle_r	subtalar_angle_r	mtp_angle_r	hip_flexion_l	hip_adduction_l	hip_rotation_l	knee_angle_l	ankle_angle_l	subtalar_angle_l	mtp_angle_l	lumbar_extension	lumbar_bending	lumbar_rotation
      1.12883333	      2.08256831	      8.17272810	     -3.17984492	      0.13704315	      0.99318572	      0.35908380	     -7.83978187	    -11.36413224	     -6.54059794	    -46.70222220	    -14.47074555	     -1.98432643	     37.90072234	     17.28978283	     14.06223954	      3.26515758	    -19.46549821	     -0.74018165	    -19.82307429	      0.48597748	    -13.76644245	     -4.50950092	      1.71526057
      1.13300000	      2.14411781	      8.35981866	     -3.24643523	      0.14246066	      0.99283046	      0.35874491	     -7.30907979	    -11.70532596	     -6.42332777	    -48.03124211	    -15.72044026	     -2.40483709	     37.64324965	     17.21328168	     14.31546297	      3.09440136	    -20.08958339	     -0.14576438	    -19.68497393	      0.34745796	    -13.82997158	     -4.71534569	      1.58293780
      1.13716667	      2.23636791	      8.57748881	     -3.32216311	      0.14786968	      0.99254464	      0.35838551	     -6.79507116	    -12.09229869	     -6.31919066	    -49.35563505	    -16.94408625	     -2.77811252	     37.12501341	     17.05696899	     14.60693917	      2.96322116	    -20.60585713	      0.40447627	    -19.60300652	      0.14837169	    -13.92364653	     -4.95236865	      1.44817068
      1.14133333	      2.36700777	      8.86895341	     -3.39963549	      0.15330721	      0.99232924	      0.35796499	     -6.30934507	    -12.59118982	     -6.27059641	    -50.68341675	    -18.07448879	     -2.98284192	     36.96640443	     16.79962042	     14.99208673	      2.90089074	    -20.97707592	      0.81703486	    -19.66226975	      0.11516239	    -14.04620630	     -5.26831561	      1.31626652
      1.14550000	      2.46142545	      9.06676834	     -3.47445290	      0.15865124	      0.99214977	      0.35764107	     -5.77365672	    -12.93617421	     -6.12424636	    -51.97524365	    -19.19324309	     -3.31111181	     29.92704532	     16.59501790	     15.25666750	      2.77223791	    -21.40524031	      1.39602658	    -19.53210573	     -1.50552619	    -14.15855227	     -5.49382930	      1.21185146
      1.14966667	      2.57283133	      9.30684503	     -3.55968857	      0.16399656	      0.99201575	      0.35727302	     -5.24243369	    -13.34915436	     -6.00046837	    -53.24047052	    -20.29898320	     -3.67314552	     29.80446377	     16.32313602	     15.57519558	      2.68929971	    -21.70807173	      1.80824910	    -19.57332288	     -1.48962512	    -14.26900442	     -5.74369306	      1.04706161
      1.15383333	      2.66528967	      9.50808087	     -3.64180060	      0.16930680	      0.99190976	      0.35692801	     -4.68498601	    -13.70072907	     -5.84389783	    -54.46322727	    -21.38067554	     -4.08459367	     29.51902726	     16.05686755	     15.84551206	      2.59548651	    -21.99351263	      2.26852547	    -19.54179885	     -1.47601648	    -14.36439639	     -5.94839492	      0.90279628
      1.15800000	      2.77400892	      9.70770498	     -3.76582558	      0.17460409	      0.99190384	      0.35667269	     -4.12154291	    -14.03783195	     -5.61333623	    -55.66517003	    -22.29836797	     -4.30972925	     23.42382742	     15.74105560	     16.09504380	      2.44755037	    -22.19733749	      2.72999040	    -19.40948979	     -1.51534416	    -14.47391807	     -6.17126344	      0.78113810
      1.16216667	      2.88780170	      9.91528594	     -3.83250728	      0.17989032	      0.99193517	      0.35629797	     -3.58464797	    -14.39087378	     -5.47473190	    -56.80830013	    -23.21322220	     -4.71158973	     23.27429528	     15.37949077	     16.38859301	      2.45070309	    -22.33920448	      3.12492618	    -19.46800023	     -1.50638938	    -14.58950709	     -6.37745587	      0.62272122
      1.16633333	      2.99225337	     10.08845168	     -3.92519234	      0.18515192	      0.99203540	      0.35599377	     -3.02540785	    -14.68502046	     -5.27190885	    -57.89981405	    -24.05627536	     -5.14779084	     22.86001144	     15.01231263	     16.62721643	      2.39356630	    -22.44598340	      3.51787958	    -19.45252308	     -1.50179943	    -14.69659207	     -6.54423745	      0.46605023
      1.17050000	      3.07554257	     10.25791751	     -4.01789219	      0.19038931	      0.99213698	      0.35572954	     -2.42955627	    -14.96105852	     -5.04475591	    -58.98190939	    -24.61803424	     -5.33595483	     16.94628194	     14.65712465	     16.84529344	      2.28985355	    -22.53290526	      4.00831998	    -19.20826851	     -1.57425221	    -14.76645336	     -6.71322238	      0.25138095
      1.17466667	      3.20250416	     10.42393508	     -4.12098636	      0.19563283	      0.99238909	      0.35542374	     -1.89103792	    -15.23692152	     -4.82466830	    -59.97170577	    -25.23642845	     -5.72676353	     16.77640967	     14.19157273	     17.09177190	      2.32672903	    -22.48182951	      4.22566549	    -19.39531150	     -1.57070290	    -14.90130788	     -6.88345436	      0.17546363
      1.17883333	      3.29725601	     10.58588383	     -4.22057237	      0.20086048	      0.99263044	      0.35513568	     -1.31089416	    -15.49857920	     -4.59334971	    -60.93025770	    -25.64986388	     -6.01743250	     16.65132669	     13.75772367	     17.31751328	      2.30138966	    -22.42582248	      4.51549786	    -19.39519981	     -1.56310022	    -14.98746058	     -7.03901562	      0.03335311
      1.18300000	      3.39904494	     10.70180692	     -4.30858273	      0.20605627	      0.99296855	      0.35488572	     -0.74768358	    -15.67927764	     -4.34258338	    -61.82792954	    -25.89053418	     -6.23963379	     11.27907723	     13.29736074	     17.49210716	      2.29411126	    -22.35214392	      4.84295844	    -19.32898842	     -1.59398621	    -15.08423945	     -7.12888216	     -0.21948301
      1.18716667	      3.49803776	     10.80804503	     -4.41216140	      0.21125078	      0.99335152	      0.35463698	     -0.18180144	    -15.84630742	     -4.08055129	    -62.66572249	    -25.97130914	     -6.56575164	     11.23428876	     12.81621158	     17.65908491	      2.29802743	    -22.22383950	      5.09704040	    -19.36313065	     -1.58756063	    -15.18298685	     -7.22501973	     -0.29950954
      1.19133333	      3.59718325	     10.89914645	     -4.50881415	      0.21642945	      0.99379750	      0.35440029	      0.37516359	    -15.98136365	     -3.81376297	    -63.43886752	    -25.93964629	     -6.86682677	     11.15347346	     12.31427880	     17.80866480	      2.31504566	    -22.05874834	      5.32480950	    -19.36722132	     -1.58195901	    -15.27855959	     -7.30362034	     -0.42258924
      1.19550000	      3.69330452	     10.96595468	     -4.60198763	      0.22160923	      0.99431844	      0.35417336	      0.92363829	    -16.07441624	     -3.54289765	    -64.14421951	    -25.73379721	     -7.14229616	     11.04709667	     11.79291371	     17.93268783	      2.34686444	    -21.85688949	      5.53868696	    -19.36813580	     -1.57747332	    -15.37524007	     -7.34680400	     -0.56093558
      1.19966667	      3.78346914	     11.00371070	     -4.69150631	      0.22677158	      0.99487486	      0.35396035	      1.46814652	    -16.11872384	     -3.26388912	    -64.78802166	    -25.35264516	     -7.40776801	     10.94710652	     11.26591212	     18.02507707	      2.38955732	    -21.64230697	      5.74843395	    -19.37044323	     -1.57343378	    -15.44797008	     -7.34854259	     -0.69347729
      1.20383333	      3.86006440	     11.03471740	     -4.77866750	      0.23192456	      0.99550282	      0.35375494	      2.02316428	    -16.13872582	     -2.97209416	    -65.37982783	    -24.71110435	     -7.50459567	      5.85823683	     10.71884487	     18.11320017	      2.47996693	    -21.35349117	      5.86432940	    -19.43750789	     -1.67052163	    -15.51945094	     -7.35413011	     -0.86058273
      1.20800000	      3.92766284	     11.02540446	     -4.85111752	      0.23705516	      0.99616088	      0.35355180	      2.56561035	    -16.09887803	     -2.69523630	    -65.88993671	    -24.02248650	     -7.77236100	      5.85436092	     10.18823097	     18.15044215	      2.53207128	    -21.09712422	      6.04735823	    -19.39805549	     -1.66628369	    -15.58474638	     -7.30134989	     -0.98950720
      1.21216667	      4.00238137	     11.01180529	     -4.92721164	      0.24218752	      0.99687882	      0.35336435	      3.08975651	    -16.04437999	     -2.40780257	    -66.33797372	    -23.13591664	     -7.89050852	      5.82576256	      9.62346767	     18.18386743	      2.60550109	    -20.78460208	      6.19252403	    -19.35983150	     -1.66567362	    -15.65003386	     -7.25372397	     -1.17639718
      1.21633333	      4.05228171	     10.95441731	     -4.98642554	      0.24728527	      0.99761825	      0.35317094	      3.62347609	    -15.92156327	     -2.13260592	    -66.71558064	    -22.15627327	     -8.14903409	      5.81012866	      9.08649046	     18.16846847	      2.68155833	    -20.49192380	      6.32512326	    -19.35396778	     -1.66598728	    -15.70249320	     -7.13438120	     -1.28686058
      1.22050000	      4.11958340	     10.90439573	     -5.05110063	      0.25241018	      0.99843837	      0.35299312	      4.12313920	    -15.80049817	     -1.84942717	    -67.02445818	    -20.98943292	     -8.20434063	      5.76814492	      8.49539442	     18.16321443	      2.78941136	    -20.12193078	      6.42089886	    -19.33792933	     -1.67243810	    -15.75798092	     -7.04687177	     -1.47132014
      1.22466667	      4.15921712	     10.81716173	     -5.09881639	      0.25749700	      0.99925583	      0.35280496	      4.63643284	    -15.62144385	     -1.57805785	    -67.26900175	    -19.74351926	     -8.34942179	      5.72194838	      7.93586703	     18.11571687	      2.90030593	    -19.76835018	      6.50800023	    -19.33893669	     -1.68280360	    -15.79517409	     -6.89969356	     -1.62153730
